<svg width="32" height="32" viewBox="0 0 32 32" fill="none" xmlns="http://www.w3.org/2000/svg">
<path d="M14.5143 0.0672474C9.56425 0.540266 5.0788 3.31424 2.41957 7.55537C0.657423 10.3614 -0.223648 13.9291 0.048683 17.144C0.272956 19.8298 1.04189 22.243 2.33947 24.3435C4.86254 28.4243 8.7793 31.0459 13.5531 31.8557C14.6665 32.0481 17.3257 32.0481 18.439 31.8557C23.2128 31.0459 27.1296 28.4243 29.6527 24.3435C30.5738 22.8523 31.3507 20.864 31.6871 19.1323C31.8794 18.1221 32.0556 16.19 31.9835 15.9013C31.8554 15.3802 31.2306 15.1878 30.8621 15.5566C30.702 15.7169 30.6699 15.8452 30.6219 16.7191C30.3575 21.4653 27.9866 25.6183 24.0459 28.2479C16.5407 33.2507 6.32031 30.2442 2.6118 21.9383C-0.279716 15.4764 1.955 7.79589 7.89823 3.81933C12.7842 0.556301 19.2 0.540266 24.0459 3.78726C24.8388 4.3164 25.776 5.04597 25.832 5.18226C25.84 5.20631 25.2954 5.78355 24.6145 6.46502L23.3811 7.69166L22.7563 7.21865C20.6898 5.64726 18.5912 4.94976 15.956 4.94976C14.1218 4.94976 12.5038 5.33459 10.9179 6.15235L10.1329 6.55321L9.6043 6.34476C9.15576 6.16838 8.98755 6.13631 8.49896 6.16838C7.17735 6.25657 6.24822 7.18657 6.16011 8.50942C6.12807 8.99848 6.16011 9.16684 6.33633 9.61581L6.54458 10.1449L6.14409 10.9306C5.3271 12.5181 4.93462 14.1776 4.93462 16.0056C4.93462 17.2242 5.01472 17.8576 5.30307 18.9399C6.20016 22.3552 8.81935 25.2174 12.1514 26.428C12.5279 26.5643 12.9844 26.7086 13.1766 26.7567C13.3609 26.8048 13.5131 26.885 13.5131 26.9411C13.5131 26.9972 13.6172 27.2538 13.7453 27.5184C14.6424 29.4265 17.3497 29.4265 18.2468 27.5184C18.375 27.2538 18.4791 26.9972 18.4791 26.9411C18.4791 26.885 18.6313 26.8048 18.8235 26.7567C19.4483 26.6044 20.5136 26.1795 21.2024 25.8187C24.6626 23.9988 26.9934 20.2788 27.0575 16.4706C27.0655 15.8372 27.0495 15.741 26.8813 15.5646C26.641 15.3081 26.1845 15.3 25.9522 15.5566C25.824 15.6929 25.776 15.8853 25.7359 16.4545C25.4315 20.6155 22.9806 23.8865 19.1759 25.2254C18.7835 25.3617 18.439 25.4739 18.407 25.4739C18.375 25.4739 18.2308 25.2896 18.0866 25.0731C17.6381 24.3756 16.8451 23.9507 15.9961 23.9507C15.147 23.9507 14.3541 24.3756 13.9055 25.0731C13.7614 25.2896 13.6172 25.4739 13.5851 25.4739C13.5531 25.4739 13.2087 25.3617 12.8162 25.2254C7.98633 23.5258 5.27103 18.4428 6.58463 13.5443C6.80089 12.7506 7.15332 11.8526 7.47371 11.3074C7.65793 10.9868 7.68196 10.9707 7.89022 11.0509C8.23464 11.1872 9.0276 11.1631 9.50818 11.0028C10.1089 10.8024 10.7897 10.1289 10.99 9.52762C11.1422 9.06261 11.1662 8.23684 11.038 7.90011C10.9579 7.69166 10.974 7.66761 11.2944 7.48321C12.2876 6.89795 13.7694 6.44899 15.139 6.31269C17.0694 6.12028 19.232 6.60132 20.882 7.59546C21.667 8.06847 22.3238 8.55753 22.3238 8.67779C22.3238 8.76598 19.9929 11.1231 19.9048 11.1231C19.8728 11.1231 19.6325 10.9868 19.3842 10.8264C17.1495 9.39132 14.258 9.52762 12.1674 11.1551C11.2223 11.9007 10.5174 12.9109 10.0929 14.1295C9.89265 14.7148 9.87663 14.8671 9.86862 15.9735C9.86862 17.3284 9.99678 17.9057 10.5174 18.8998C12.0633 21.8582 15.7478 23.0447 18.7594 21.5535C20.7138 20.5834 22.0114 18.6513 22.1395 16.5107C22.1876 15.8131 22.1796 15.757 22.0034 15.5726C21.8672 15.4283 21.731 15.3722 21.5308 15.3722C21.0262 15.3802 20.8019 15.6929 20.8019 16.3984C20.7939 18.2344 19.1519 20.1986 17.2055 20.7037C16.5407 20.872 15.4514 20.872 14.7866 20.7037C13.465 20.3589 12.2635 19.3808 11.6868 18.1702C11.2543 17.2723 11.1582 16.7752 11.2143 15.765C11.2623 14.7308 11.4706 14.1215 12.0232 13.2957C12.9364 11.9568 14.3701 11.2032 15.9961 11.2032C16.789 11.2032 17.4378 11.3475 18.1187 11.6843C19.0478 12.1332 19.0878 11.9809 17.6461 13.432L16.3805 14.7148L15.94 14.7469C15.4834 14.7869 15.2031 14.9473 14.9228 15.3241C14.6905 15.6368 14.6905 16.3904 14.9228 16.7111C15.6677 17.7213 17.1254 17.3525 17.2536 16.1258L17.3017 15.733L23.6454 9.35925C27.1296 5.85571 30.0291 2.90536 30.0852 2.80113C30.2935 2.40829 30.0291 1.9513 29.5405 1.8551C29.3002 1.80699 29.2362 1.8551 28.0828 2.99355C26.7131 4.35648 26.9454 4.30036 25.9762 3.50665C22.8604 0.965181 18.5912 -0.317581 14.5143 0.0672474ZM9.23585 7.66761C9.58828 7.88408 9.8526 8.46132 9.78052 8.84615C9.66838 9.44744 9.00357 9.92046 8.4509 9.8002C7.40963 9.5677 7.15332 8.25287 8.03439 7.66761C8.33876 7.46718 8.90745 7.46718 9.23585 7.66761ZM16.6128 25.482C16.9492 25.6904 17.1174 26.0111 17.1174 26.4601C17.1174 27.358 16.1242 27.9192 15.3873 27.4382C14.9228 27.1335 14.7305 26.3879 14.9949 25.8828C15.2672 25.3457 16.0682 25.1452 16.6128 25.482Z" fill="#FF0000"/>
</svg>
