<svg width="37" height="37" viewBox="0 0 37 37" fill="none" xmlns="http://www.w3.org/2000/svg">
<g clip-path="url(#clip0_371_2864)">
<path opacity="0.946" fill-rule="evenodd" clip-rule="evenodd" d="M5.52796 -0.0361328C14.1516 -0.0361328 22.7754 -0.0361328 31.399 -0.0361328C32.3373 0.26383 32.9515 0.890132 33.2418 1.84277C33.278 9.45473 33.29 17.0667 33.278 24.6787C32.8444 24.6787 32.4108 24.6787 31.9772 24.6787C31.9892 17.163 31.9772 9.64739 31.941 2.13184C31.8151 1.74085 31.5622 1.46383 31.1823 1.30078C22.7031 1.2526 14.2239 1.2526 5.74475 1.30078C5.36482 1.46383 5.11189 1.74085 4.98596 2.13184C4.94983 9.64739 4.93778 17.163 4.94983 24.6787C4.51624 24.6787 4.08264 24.6787 3.64905 24.6787C3.637 17.0667 3.64905 9.45473 3.68518 1.84277C3.97546 0.890132 4.58972 0.26383 5.52796 -0.0361328ZM17.8131 6.17871C20.2461 6.05118 21.8479 7.13516 22.6188 9.43066C22.9022 10.6632 22.6854 11.7954 21.9684 12.8271C21.5507 12.2527 21.0328 11.7951 20.4147 11.4541C21.2615 10.1191 21.117 8.90262 19.9811 7.80469C18.6416 7.02935 17.4493 7.21001 16.4039 8.34668C15.7692 9.40479 15.8054 10.4406 16.5123 11.4541C15.8942 11.7951 15.3763 12.2527 14.9586 12.8271C13.9491 11.2179 13.9491 9.60396 14.9586 7.98535C15.6787 7.01144 16.6302 6.40922 17.8131 6.17871ZM18.1744 8.63574C19.0456 8.5913 19.5515 9.00083 19.692 9.86426C19.4297 10.8987 18.8034 11.2239 17.8131 10.8398C17.2372 10.3562 17.1288 9.79011 17.4879 9.1416C17.6707 8.89698 17.8995 8.72839 18.1744 8.63574ZM18.1022 12.3213C19.3674 12.2794 20.3551 12.7732 21.0651 13.8027C19.8131 14.7441 18.44 14.9609 16.9459 14.4531C16.5487 14.2909 16.1874 14.0741 15.8619 13.8027C16.3971 12.9817 17.1438 12.4878 18.1022 12.3213Z" fill="#FF9066"/>
<path opacity="0.899" fill-rule="evenodd" clip-rule="evenodd" d="M6.10645 2.4209C6.54004 2.4209 6.97363 2.4209 7.40723 2.4209C7.40723 2.85449 7.40723 3.28809 7.40723 3.72168C6.97363 3.72168 6.54004 3.72168 6.10645 3.72168C6.10645 3.28809 6.10645 2.85449 6.10645 2.4209Z" fill="#FF9066"/>
<path opacity="0.9" fill-rule="evenodd" clip-rule="evenodd" d="M8.56348 2.4209C8.99707 2.4209 9.43066 2.4209 9.86426 2.4209C9.86426 2.85449 9.86426 3.28809 9.86426 3.72168C9.43066 3.72168 8.99707 3.72168 8.56348 3.72168C8.56348 3.28809 8.56348 2.85449 8.56348 2.4209Z" fill="#FF9066"/>
<path opacity="0.899" fill-rule="evenodd" clip-rule="evenodd" d="M11.0205 2.4209C11.4541 2.4209 11.8877 2.4209 12.3213 2.4209C12.3213 2.85449 12.3213 3.28809 12.3213 3.72168C11.8877 3.72168 11.4541 3.72168 11.0205 3.72168C11.0205 3.28809 11.0205 2.85449 11.0205 2.4209Z" fill="#FF9066"/>
<path opacity="0.946" fill-rule="evenodd" clip-rule="evenodd" d="M25.2568 36.9639C20.7282 36.9639 16.1996 36.9639 11.6709 36.9639C11.6709 36.5303 11.6709 36.0967 11.6709 35.6631C12.1471 35.6856 12.6169 35.6615 13.0801 35.5908C13.5387 34.0214 14.0084 32.4556 14.4893 30.8936C10.2981 30.8334 6.10665 30.7972 1.91504 30.7852C0.922037 30.5267 0.271646 29.9124 -0.0361328 28.9424C-0.0361328 21.5472 -0.0361328 14.152 -0.0361328 6.75684C0.352341 5.52599 1.19544 4.89969 2.49316 4.87793C2.49316 5.31152 2.49316 5.74512 2.49316 6.17871C1.91323 6.16827 1.51576 6.43324 1.30078 6.97363C1.26465 13.2607 1.2526 19.5478 1.26465 25.835C7.84082 25.835 14.417 25.835 20.9932 25.835C20.9932 26.2686 20.9932 26.7021 20.9932 27.1357C14.417 27.1357 7.84082 27.1357 1.26465 27.1357C1.25263 27.6662 1.26467 28.1962 1.30078 28.7256C1.46383 29.1055 1.74085 29.3584 2.13184 29.4844C6.97358 29.5205 11.8154 29.5326 16.6572 29.5205C16.6572 29.9541 16.6572 30.3877 16.6572 30.8213C16.3557 30.782 16.0787 30.8302 15.8262 30.9658C15.3728 32.5266 14.9031 34.0803 14.417 35.627C18.0302 35.6631 21.6435 35.6752 25.2568 35.6631C25.2568 36.0967 25.2568 36.5303 25.2568 36.9639Z" fill="#FF9066"/>
<path opacity="0.939" fill-rule="evenodd" clip-rule="evenodd" d="M17.6691 4.87781C20.4328 4.67516 22.4201 5.80733 23.631 8.27429C24.5031 10.7716 23.9852 12.9276 22.0773 14.7421C20.3152 16.0927 18.3881 16.3818 16.2961 15.6093C13.663 14.2819 12.567 12.15 13.008 9.21375C13.6731 6.80186 15.2268 5.35655 17.6691 4.87781ZM17.8136 6.17859C16.6307 6.4091 15.6792 7.01132 14.9591 7.98523C13.9496 9.60384 13.9496 11.2178 14.9591 12.827C15.3768 12.2526 15.8947 11.7949 16.5129 11.454C15.8059 10.4405 15.7697 9.40467 16.4045 8.34656C17.4498 7.20989 18.6422 7.02923 19.9816 7.80457C21.1175 8.9025 21.262 10.1189 20.4152 11.454C21.0334 11.7949 21.5512 12.2526 21.9689 12.827C22.6859 11.7953 22.9027 10.6631 22.6193 9.43054C21.8484 7.13504 20.2466 6.05106 17.8136 6.17859ZM18.175 8.63562C17.9001 8.72827 17.6712 8.89686 17.4884 9.14148C17.1294 9.78999 17.2378 10.3561 17.8136 10.8397C18.8039 11.2238 19.4302 10.8986 19.6925 9.86414C19.552 9.00071 19.0461 8.59118 18.175 8.63562ZM18.1027 12.3212C17.1443 12.4877 16.3976 12.9815 15.8625 13.8026C16.1879 14.074 16.5492 14.2908 16.9465 14.453C18.4405 14.9607 19.8136 14.7439 21.0656 13.8026C20.3556 12.7731 19.3679 12.2793 18.1027 12.3212Z" fill="#FF9066"/>
<path opacity="0.941" fill-rule="evenodd" clip-rule="evenodd" d="M36.9639 6.75684C36.9639 14.152 36.9639 21.5472 36.9639 28.9424C36.556 30.1468 35.7129 30.773 34.4346 30.8213C34.4346 30.3877 34.4346 29.9541 34.4346 29.5205C34.993 29.5001 35.3905 29.2351 35.627 28.7256C35.6631 28.1962 35.6751 27.6662 35.6631 27.1357C35.2536 27.1357 34.8441 27.1357 34.4346 27.1357C34.4346 26.7021 34.4346 26.2686 34.4346 25.835C34.8441 25.835 35.2536 25.835 35.6631 25.835C35.6752 19.5478 35.6631 13.2607 35.627 6.97363C35.412 6.43324 35.0145 6.16827 34.4346 6.17871C34.4346 5.74512 34.4346 5.31152 34.4346 4.87793C35.7323 4.89969 36.5754 5.52599 36.9639 6.75684Z" fill="#FF9066"/>
<path opacity="0.94" fill-rule="evenodd" clip-rule="evenodd" d="M10.9482 17.163C15.9587 17.1509 20.9691 17.163 25.9795 17.1991C27.8424 17.4171 28.8541 18.465 29.0146 20.3427C28.9451 21.5189 28.4152 22.4102 27.4248 23.0165C27.1951 22.6777 26.9783 22.3284 26.7744 21.9686C26.9024 21.7889 27.059 21.6323 27.2441 21.4989C27.8041 20.6493 27.7679 19.8303 27.1357 19.0419C26.9161 18.8115 26.6511 18.6549 26.3408 18.5722C21.236 18.4533 16.1292 18.4293 11.0205 18.4999C10.1754 18.599 9.60923 19.0446 9.32227 19.8368C9.14413 20.8901 9.54159 21.6248 10.5146 22.0409C14.0047 22.1476 17.4975 22.1837 20.9932 22.1493C20.9932 22.5829 20.9932 23.0165 20.9932 23.4501C17.5725 23.4622 14.1519 23.4501 10.7314 23.414C8.98594 23.1135 8.04649 22.0778 7.91309 20.3065C8.09158 18.438 9.1033 17.3902 10.9482 17.163Z" fill="#FF9066"/>
<path opacity="0.942" fill-rule="evenodd" clip-rule="evenodd" d="M23.5229 19.6201C24.7275 19.4813 25.5104 19.9871 25.8715 21.1377C25.9076 22.5105 25.9197 23.8835 25.9076 25.2568C26.5543 25.171 27.1564 25.2915 27.7143 25.6181C28.5333 25.04 29.3523 25.04 30.1713 25.6181C31.201 24.9739 32.1284 25.0943 32.9535 25.9795C33.0697 26.1877 33.1661 26.4045 33.2426 26.6298C33.2908 29.1351 33.2908 31.6402 33.2426 34.1455C33.209 34.2489 33.1487 34.3331 33.0619 34.3984C29.551 34.5181 26.0341 34.5422 22.5111 34.4707C21.0939 33.5111 19.6968 32.5235 18.3197 31.5078C17.6279 30.6209 17.6521 29.7537 18.392 28.9062C18.9569 28.4639 19.5832 28.3434 20.2709 28.5449C20.8731 28.8941 21.4754 29.2435 22.0775 29.5927C22.1377 26.7265 22.1739 23.86 22.1859 20.9931C22.404 20.3054 22.8496 19.8478 23.5229 19.6201ZM23.8119 20.9209C24.1774 20.8643 24.4304 21.0088 24.5707 21.3545C24.5948 23.3538 24.6189 25.3531 24.643 27.3525C24.7632 27.6115 24.968 27.732 25.2572 27.7138C25.4114 27.7127 25.556 27.6766 25.6908 27.6054C25.8438 27.3491 25.9522 27.0721 26.016 26.7744C26.3196 26.4216 26.6327 26.4216 26.9555 26.7744C26.9829 27.5979 27.3804 27.875 28.1479 27.6054C28.2346 27.5402 28.2949 27.4559 28.3285 27.3525C28.303 26.8732 28.5198 26.5841 28.9789 26.4853C29.411 26.6731 29.6278 27.0104 29.6293 27.497C29.9906 27.7861 30.352 27.7861 30.7133 27.497C30.7771 27.1993 30.8855 26.9223 31.0385 26.666C31.3416 26.434 31.6186 26.4701 31.8695 26.7744C31.9768 28.9119 32.0129 31.0557 31.9779 33.206C28.9668 33.2181 25.9557 33.206 22.9447 33.1699C21.7105 32.2817 20.4699 31.4026 19.2231 30.5322C19.0417 30.1005 19.1862 29.8355 19.6566 29.7373C20.6007 30.2514 21.5281 30.7934 22.4389 31.3632C22.7745 31.5008 23.0756 31.4406 23.3422 31.1826C23.4374 27.8867 23.4856 24.5865 23.4867 21.2822C23.5608 21.1241 23.6692 21.0037 23.8119 20.9209Z" fill="#FF9066"/>
<path opacity="0.899" fill-rule="evenodd" clip-rule="evenodd" d="M10.4424 19.6924C10.876 19.6924 11.3096 19.6924 11.7432 19.6924C11.7432 20.126 11.7432 20.5596 11.7432 20.9932C11.3096 20.9932 10.876 20.9932 10.4424 20.9932C10.4424 20.5596 10.4424 20.126 10.4424 19.6924Z" fill="#FF9066"/>
<path opacity="0.899" fill-rule="evenodd" clip-rule="evenodd" d="M12.8994 19.6924C13.333 19.6924 13.7666 19.6924 14.2002 19.6924C14.2002 20.126 14.2002 20.5596 14.2002 20.9932C13.7666 20.9932 13.333 20.9932 12.8994 20.9932C12.8994 20.5596 12.8994 20.126 12.8994 19.6924Z" fill="#FF9066"/>
<path opacity="0.899" fill-rule="evenodd" clip-rule="evenodd" d="M15.3564 19.6924C15.79 19.6924 16.2236 19.6924 16.6572 19.6924C16.6572 20.126 16.6572 20.5596 16.6572 20.9932C16.2236 20.9932 15.79 20.9932 15.3564 20.9932C15.3564 20.5596 15.3564 20.126 15.3564 19.6924Z" fill="#FF9066"/>
<path opacity="0.9" fill-rule="evenodd" clip-rule="evenodd" d="M17.8135 19.6924C18.2471 19.6924 18.6807 19.6924 19.1143 19.6924C19.1143 20.126 19.1143 20.5596 19.1143 20.9932C18.6807 20.9932 18.2471 20.9932 17.8135 20.9932C17.8135 20.5596 17.8135 20.126 17.8135 19.6924Z" fill="#FF9066"/>
<path opacity="0.899" fill-rule="evenodd" clip-rule="evenodd" d="M20.2705 19.6924C20.7041 19.6924 21.1377 19.6924 21.5713 19.6924C21.5713 20.126 21.5713 20.5596 21.5713 20.9932C21.1377 20.9932 20.7041 20.9932 20.2705 20.9932C20.2705 20.5596 20.2705 20.126 20.2705 19.6924Z" fill="#FF9066"/>
</g>
<defs>
<clipPath id="clip0_371_2864">
<rect width="37" height="37" fill="white"/>
</clipPath>
</defs>
</svg>
