<svg width="22" height="28" viewBox="0 0 22 28" fill="none" xmlns="http://www.w3.org/2000/svg">
<path d="M21.1691 21.7216C21.0047 21.404 20.6172 21.1969 20.1875 21.1969H18.0625V8.44692C18.0625 7.97751 17.5868 7.59692 17 7.59692H12.75C12.1632 7.59692 11.6875 7.97751 11.6875 8.44692V21.1969H9.5625C9.13279 21.1969 8.74531 21.404 8.58089 21.7216C8.41646 22.0393 8.50737 22.4048 8.81118 22.648L14.1237 26.898C14.3312 27.0639 14.6031 27.1469 14.875 27.1469C15.1469 27.1469 15.4188 27.0639 15.6263 26.8979L20.9388 22.6479C21.2427 22.4048 21.3336 22.0392 21.1691 21.7216ZM14.875 25.0948L12.1276 22.8969H12.75C13.3368 22.8969 13.8125 22.5164 13.8125 22.0469V9.29692H15.9375V22.0469C15.9375 22.5164 16.4132 22.8969 17 22.8969H17.6224L14.875 25.0948Z" fill="#FEC53D"/>
<path d="M9.56255 18.6469V5.95H11.6875C11.6879 5.95 11.6883 5.95 11.6889 5.95C12.2756 5.95 12.7514 5.56941 12.7514 5.1C12.7514 4.85238 12.619 4.62953 12.4079 4.47419L7.12637 0.248944C6.71139 -0.0829813 6.0387 -0.0829813 5.62373 0.248944L0.311227 4.49894C0.00735219 4.74204 -0.0835576 5.10765 0.0809307 5.42528C0.245353 5.74292 0.632833 5.95 1.06255 5.95H3.18755V18.6469C3.18755 19.1163 3.66328 19.4969 4.25005 19.4969H8.50005C9.08681 19.4969 9.56255 19.1163 9.56255 18.6469ZM8.50005 4.25C7.91328 4.25 7.43755 4.63059 7.43755 5.1V17.7969H5.31255V5.1C5.31255 4.63059 4.83681 4.25 4.25005 4.25H3.62762L6.37505 2.05206L9.12247 4.25H8.50005Z" fill="#FEC53D"/>
</svg>
