<svg width="29" height="31" viewBox="0 0 29 31" fill="none" xmlns="http://www.w3.org/2000/svg">
<path opacity="0.992" fill-rule="evenodd" clip-rule="evenodd" d="M14.4754 0.432617C16.2811 0.543798 18.0035 0.977392 19.6424 1.7334C19.5487 2.16109 19.4524 2.59468 19.3533 3.03418C19.2665 3.87766 19.3267 4.70872 19.534 5.52734C19.5099 5.56348 19.4858 5.59961 19.4617 5.63574C15.6485 3.46933 11.7944 3.38501 7.89925 5.38281C7.44079 5.63603 7.0072 5.92509 6.59847 6.25C6.94773 6.59926 7.29706 6.94859 7.64632 7.29785C7.69452 8.86363 7.69452 10.4293 7.64632 11.9951C6.51413 10.8629 5.38202 9.73082 4.24983 8.59863C1.74063 12.1478 1.28295 15.9538 2.87679 20.0166C5.02315 24.4112 8.55209 26.7479 13.4637 27.0264C16.0028 26.9549 18.2912 26.172 20.3289 24.6777C19.2088 23.5576 18.0887 22.4375 16.9686 21.3174C16.9204 19.7516 16.9204 18.1859 16.9686 16.6201C18.8716 18.5231 20.7746 20.4261 22.6776 22.3291C25.2241 18.722 25.6577 14.8678 23.9783 10.7666C23.7679 10.3216 23.539 9.888 23.2918 9.46582C23.328 9.44176 23.3641 9.41762 23.4002 9.39355C24.6342 9.76153 25.8627 9.71333 27.0858 9.24902C27.1416 9.2595 27.1898 9.28357 27.2303 9.32129C29.3694 14.5855 28.8635 19.5718 25.7127 24.2803C22.926 27.993 19.2043 30.0646 14.5477 30.4951C10.1067 29.9893 6.50553 27.99 3.74397 24.4971C0.565839 19.9765 -0.0845512 15.1106 1.7928 9.89941C4.25446 4.38605 8.482 1.23044 14.4754 0.432617ZM15.7762 10.8389C16.6713 10.8104 17.5626 10.8465 18.45 10.9473C19.1888 11.3299 19.3695 11.896 18.992 12.6455C18.852 12.8338 18.6713 12.9663 18.45 13.043C17.5626 13.1437 16.6713 13.1798 15.7762 13.1514C15.7762 12.3805 15.7762 11.6097 15.7762 10.8389Z" fill="#F9634F"/>
</svg>
